<?xml version="1.0" encoding="UTF-8" standalone="no"?><!DOCTYPE svg PUBLIC "-//W3C//DTD SVG 1.1//EN" "http://www.w3.org/Graphics/SVG/1.1/DTD/svg11.dtd"><svg width="100%" height="100%" viewBox="0 0 1000 1000" version="1.1" xmlns="http://www.w3.org/2000/svg" xmlns:xlink="http://www.w3.org/1999/xlink" xml:space="preserve" style="fill-rule:evenodd;clip-rule:evenodd;stroke-linejoin:round;stroke-miterlimit:1.41421;"><g><path d="M500,10c-270.6,0 -490,219.4 -490,490c0,270.6 219.4,490 490,490c270.6,0 490,-219.4 490,-490c0,-270.6 -219.4,-490 -490,-490Zm0,910c-232,0 -420,-188 -420,-420c0,-232 188,-420 420,-420c232,0 420,188 420,420c0,232 -188,420 -420,420Z" style="fill:#39405a;fill-rule:nonzero;"/><path d="M500.7,564.5c-0.1,0 -0.1,0 -0.2,0c-0.1,0 -0.1,0 -0.2,0c-118.9,0.2 -218.8,76.3 -247.4,179.4c0.5,18.1 10.1,36.1 32.8,36.1c22.7,0 32.9,-17.7 39.5,-36.1c28.4,-64.6 96.2,-110 175.3,-110.1c79.1,0.1 146.9,45.6 175.3,110.1c6.6,18.4 16.7,36.1 39.5,36.1c22.7,0 32.3,-18 32.8,-36.1c-28.6,-103 -128.5,-179.2 -247.4,-179.4Z" style="fill:#39405a;fill-rule:nonzero;"/><path d="M630.2,413.6c0,30.2 24.5,54.7 54.7,54.7c30.2,0 54.7,-24.5 54.7,-54.7c0,-30.2 -24.5,-54.7 -54.7,-54.7c-30.2,0 -54.7,24.5 -54.7,54.7Z" style="fill:#39405a;fill-rule:nonzero;"/><path d="M261.6,413.6c0,30.2 24.5,54.7 54.7,54.7c30.2,0 54.7,-24.5 54.7,-54.7c0,-30.2 -24.5,-54.7 -54.7,-54.7c-30.2,0 -54.7,24.5 -54.7,54.7Z" style="fill:#39405a;fill-rule:nonzero;"/></g></svg>